<svg width="219" height="219" viewBox="0 0 219 219" fill="none" xmlns="http://www.w3.org/2000/svg">
<path fill-rule="evenodd" clip-rule="evenodd" d="M109.5 200.02C159.493 200.02 200.02 159.493 200.02 109.5C200.02 59.5072 159.493 18.98 109.5 18.98C59.5072 18.98 18.98 59.5072 18.98 109.5C18.98 159.493 59.5072 200.02 109.5 200.02ZM109.5 219C169.975 219 219 169.975 219 109.5C219 49.0248 169.975 0 109.5 0C49.0248 0 0 49.0248 0 109.5C0 169.975 49.0248 219 109.5 219Z" fill="#7387A2"/>
<path d="M98.4622 134.378V124.742C98.4622 122.173 98.579 120.012 98.8126 118.26C99.163 116.391 99.6886 114.756 100.389 113.354C101.207 111.836 102.2 110.434 103.368 109.15C104.653 107.748 106.171 106.113 107.923 104.244L121.413 90.5784C124.333 87.6584 125.793 83.8624 125.793 79.1904C125.793 74.6352 124.275 70.956 121.238 68.1528C118.318 65.2328 114.581 63.7728 110.025 63.7728C105.12 63.7728 101.09 65.4664 97.9366 68.8536C94.783 72.124 92.9726 76.1536 92.5054 80.9424L70.0798 79.1904C70.7806 73.584 72.2406 68.62 74.4598 64.2984C76.679 59.86 79.5406 56.1224 83.0446 53.0856C86.6654 50.0488 90.8118 47.7712 95.4838 46.2528C100.156 44.6176 105.295 43.8 110.901 43.8C116.157 43.8 121.005 44.5592 125.443 46.0776C129.998 47.596 133.911 49.8152 137.181 52.7352C140.569 55.5384 143.197 59.1008 145.065 63.4224C146.934 67.6272 147.869 72.4744 147.869 77.964C147.869 81.8184 147.343 85.2056 146.292 88.1256C145.241 91.0456 143.839 93.732 142.087 96.1848C140.335 98.6376 138.291 100.974 135.955 103.193C133.736 105.412 131.341 107.748 128.772 110.201C127.137 111.719 125.735 113.062 124.567 114.23C123.399 115.398 122.406 116.625 121.589 117.91C120.888 119.078 120.362 120.479 120.012 122.114C119.661 123.633 119.486 125.502 119.486 127.721V134.378H98.4622ZM94.9582 158.731C94.9582 154.994 96.3014 151.782 98.9878 149.095C101.791 146.409 105.12 145.066 108.974 145.066C112.712 145.066 115.982 146.35 118.785 148.92C121.589 151.49 122.99 154.643 122.99 158.381C122.99 162.118 121.589 165.33 118.785 168.017C116.099 170.703 112.829 172.046 108.974 172.046C107.105 172.046 105.295 171.696 103.543 170.995C101.908 170.294 100.448 169.36 99.163 168.192C97.8782 167.024 96.827 165.622 96.0094 163.987C95.3086 162.352 94.9582 160.6 94.9582 158.731Z" fill="#7387A2"/>
</svg>
