<svg width="14" height="12" viewBox="0 0 14 12" fill="none" xmlns="http://www.w3.org/2000/svg">
<path d="M6.32642 0.375C6.62579 -0.125 7.37421 -0.125 7.67357 0.375L13.7358 10.5C14.0351 11 13.6609 11.625 13.0622 11.625H0.93782C0.339086 11.625 -0.0351218 11 0.264245 10.5L6.32642 0.375Z" fill="#CB4747"/>
<path d="M7.52889 8.124H6.40889V3.75H7.52889V8.124ZM6.22222 9.492C6.22222 9.3 6.29378 9.135 6.43689 8.997C6.58622 8.859 6.76355 8.79 6.96889 8.79C7.168 8.79 7.34222 8.856 7.49155 8.988C7.64089 9.12 7.71555 9.282 7.71555 9.474C7.71555 9.666 7.64089 9.831 7.49155 9.969C7.34844 10.107 7.17422 10.176 6.96889 10.176C6.86933 10.176 6.77289 10.158 6.67955 10.122C6.59244 10.086 6.51467 10.038 6.44622 9.978C6.37778 9.918 6.32178 9.846 6.27822 9.762C6.24089 9.678 6.22222 9.588 6.22222 9.492Z" fill="white"/>
</svg>
